<svg viewBox="0 0 700 470" xmlns="http://www.w3.org/2000/svg" font-family="-apple-system, BlinkMacSystemFont, 'Segoe UI', Helvetica, Arial, sans-serif" role="img" aria-label="yuhangYH GitHub activity overview (dark): commits 100 percent, issues, pull requests and code review near zero">
  <title>yuhangYH GitHub activity overview — dark</title>

  <text x="350" y="30" text-anchor="middle" fill="#e6edf3" font-size="18" font-weight="600">Activity overview</text>
  <text x="350" y="52" text-anchor="middle" fill="#8b949e" font-size="14">Yuhang Guo · @yuhangYH · 183 contributions</text>

  <g stroke="#3fb950" stroke-width="2" stroke-linecap="round">
    <line x1="350" y1="255" x2="350" y2="100"/>
    <line x1="350" y1="255" x2="350" y2="410"/>
    <line x1="350" y1="255" x2="575" y2="255"/>
    <line x1="350" y1="255" x2="125" y2="255"/>
  </g>
  <g fill="#3fb950">
    <circle cx="350" cy="100" r="3"/>
    <circle cx="350" cy="410" r="3"/>
    <circle cx="575" cy="255" r="3"/>
    <circle cx="125" cy="255" r="3"/>
  </g>

  <polygon points="350,247 358,255 350,258 127,255"
           fill="#3fb950" fill-opacity="0.22" stroke="#3fb950" stroke-width="2" stroke-linejoin="round"/>
  <g fill="#0d1117" stroke="#3fb950" stroke-width="2">
    <circle cx="350" cy="247" r="5"/>
    <circle cx="358" cy="255" r="5"/>
    <circle cx="350" cy="258" r="5"/>
    <circle cx="127" cy="255" r="5"/>
  </g>

  <g fill="#8b949e" font-size="17">
    <text x="350" y="80" text-anchor="middle">Code review</text>
    <text x="597" y="260" text-anchor="start">Issues</text>
  </g>
  <g font-size="17" text-anchor="middle">
    <text x="95" y="237" fill="#e6edf3" font-weight="600">100%</text>
    <text x="95" y="259" fill="#8b949e">Commits</text>
    <text x="350" y="440" fill="#e6edf3" font-weight="600">0%</text>
    <text x="350" y="462" fill="#8b949e">Pull requests</text>
  </g>
</svg>
