<svg viewBox="0 0 700 470" xmlns="http://www.w3.org/2000/svg" font-family="-apple-system, BlinkMacSystemFont, 'Segoe UI', Helvetica, Arial, sans-serif" role="img" aria-label="yuhangYH GitHub activity overview: commits 94 percent, pull requests 6 percent, issues and code review near zero">
  <title>yuhangYH GitHub activity overview</title>

  <text x="350" y="30" text-anchor="middle" fill="#1a1a1a" font-size="18" font-weight="600">Activity overview</text>
  <text x="350" y="52" text-anchor="middle" fill="#57606a" font-size="14">Yuhang Guo · @yuhangYH · 186 contributions</text>

  <g stroke="#2d7d46" stroke-width="2" stroke-linecap="round">
    <line x1="350" y1="255" x2="350" y2="100"/>
    <line x1="350" y1="255" x2="350" y2="410"/>
    <line x1="350" y1="255" x2="575" y2="255"/>
    <line x1="350" y1="255" x2="125" y2="255"/>
  </g>
  <g fill="#2d7d46">
    <circle cx="350" cy="100" r="3"/>
    <circle cx="350" cy="410" r="3"/>
    <circle cx="575" cy="255" r="3"/>
    <circle cx="125" cy="255" r="3"/>
  </g>

  <!-- Commits 94%, PRs 6%, Issues/Code review ~0 -->
  <polygon points="350,250 355,255 350,264 139,255"
           fill="#2d7d46" fill-opacity="0.18" stroke="#2d7d46" stroke-width="2" stroke-linejoin="round"/>
  <g fill="#ffffff" stroke="#2d7d46" stroke-width="2">
    <circle cx="350" cy="250" r="5"/>
    <circle cx="355" cy="255" r="5"/>
    <circle cx="350" cy="264" r="5"/>
    <circle cx="139" cy="255" r="5"/>
  </g>

  <g fill="#57606a" font-size="17">
    <text x="350" y="80" text-anchor="middle">Code review</text>
    <text x="597" y="260" text-anchor="start">Issues</text>
  </g>
  <g font-size="17" text-anchor="middle">
    <text x="95" y="237" fill="#1a1a1a" font-weight="600">94%</text>
    <text x="95" y="259" fill="#57606a">Commits</text>
    <text x="350" y="440" fill="#1a1a1a" font-weight="600">6%</text>
    <text x="350" y="462" fill="#57606a">Pull requests</text>
  </g>
</svg>
